<?xml version="1.0" encoding="utf-8"?>
<!-- Generator: Adobe Illustrator 19.1.0, SVG Export Plug-In . SVG Version: 6.00 Build 0)  -->
<svg version="1.1" id="Layer_1" xmlns="http://www.w3.org/2000/svg" xmlns:xlink="http://www.w3.org/1999/xlink" x="0px" y="0px"
	 viewBox="0 0 14.6 63" style="enable-background:new 0 0 14.6 63;" xml:space="preserve">
<style type="text/css">
	.st0{fill:#FFFFFF;}
</style>
<g>
	<path class="st0" d="M7.3,12.7c-0.9,0-1.6,0-2.3,0c-1.1,0-1.9-0.5-2.5-1.4c-0.7-0.9-1.4-1.9-1.6-3.1c0-0.2-0.2-0.4-0.3-0.5
		C0.1,7.2,0,6.5,0,5.7c0.1-1,0.6-1.8,1.3-2.4c0.4-0.4,0.8-0.9,1.2-1.4c0.4-0.6,1-1.2,1.9-0.9c0.1,0,0.3-0.1,0.4-0.1
		C5,0.8,5.2,0.6,5.4,0.5c0.7-0.6,1-0.6,1.7-0.1C8,0.9,9,1.6,9.9,2.2c0.2,0.2,0.5,0.3,0.8,0.3c1,0.2,1.6,1.2,1.8,2.2
		c0.1,0.7-0.1,1.2-0.1,1.9c0,0.8,0,1.5-0.1,2.3c0,0.5-0.1,1-0.3,1.4c-0.2,0.4-0.5,0.7-0.8,0.9c-0.6,0.4-1.3,0.9-2.1,1.1
		C8.5,12.5,7.9,12.6,7.3,12.7z"/>
	<path class="st0" d="M14.6,55.8c0.2,0.8-0.1,1.3-0.7,1.7c-0.5,0.4-0.9,1-1.3,1.6c-0.1,0.2-0.1,0.4-0.1,0.6c0,0.4-0.1,0.8-0.4,1.1
		c-0.1,0.1-0.2,0.3-0.2,0.4c-0.4,1.1-1.9,1.8-3,1.6c-0.2,0-0.4-0.2-0.7-0.3c-0.3-0.1-0.6-0.3-0.9-0.4C5.9,62,5,61.2,4.4,60
		c-0.4-0.8-0.8-1.5-1.1-2.3c-0.5-1.4-0.4-2.8,0.5-4.1c0.5-0.7,0.9-1.4,1.7-1.8c0.3-0.1,0.5-0.5,0.7-0.8c0.6-1,1-1.2,2.1-0.7
		c0.5,0.2,0.9,0.3,1.4,0.3c0.2,0,0.5,0.1,0.6,0.2c0.9,0.7,1.9,1.4,2.8,2.2C14.1,53.6,14.8,54.6,14.6,55.8z"/>
	<path class="st0" d="M7.6,36.8c-0.4,0-0.7,0-1.1,0.1c-1.1,0.2-2.5-0.8-2.7-1.9c-0.1-0.5-0.4-1-0.6-1.5c-0.5-1.1-0.9-2.4-0.7-3.7
		c0.1-0.3,0.3-0.5,0.5-0.8c0.3-0.4,0.6-0.8,0.9-1.2c0.2-0.3,0.4-0.6,0.6-0.9c0.4-0.6,0.8-1,1.5-1.1c0.3,0,0.5,0,0.6,0.2
		c0.2,0.3,0.6,0.4,0.9,0.5c0.7,0.4,1.5,0.4,2.2,1c0.6,0.6,1.5,0.9,2.1,1.5c0.8,0.7,1.7,1.3,2,2.5c0,0.2,0.2,0.3,0.2,0.5
		c0.2,0.6,0.2,1.2-0.4,1.7c-0.9,0.7-1.7,1.5-2.6,2.1c-0.6,0.4-1.3,0.8-2.1,0.8c-0.5,0-0.9,0.2-1.4,0.3C7.7,36.9,7.6,36.8,7.6,36.8z"
		/>
</g>
</svg>
