<?xml version="1.0" encoding="utf-8"?>
<!-- Generator: Adobe Illustrator 19.1.0, SVG Export Plug-In . SVG Version: 6.00 Build 0)  -->
<svg version="1.1" id="Layer_1" xmlns="http://www.w3.org/2000/svg" xmlns:xlink="http://www.w3.org/1999/xlink" x="0px" y="0px"
	 viewBox="0 0 72.2 64.4" style="enable-background:new 0 0 72.2 64.4;" xml:space="preserve">
<style type="text/css">
	.st0{fill:#FFFFFF;}
</style>
<path class="st0" d="M72.2,36.5c-0.4,1.3-3.2,5-4.3,4.6c-3-1.1-10.1-0.1-13.1-0.6c-0.3-0.1-0.7-0.1-1,0c-3.9,1.3-7.9,1.1-11.9,1
	c-1.8-0.1,11.2,0.3,9.4,0.4c-2.3,0.1-4.5,0.2-6.8,0.2c-4.2,0.1,3.8-0.4-0.4-0.9c-1.4-0.2-2.9,0-4.4,0.2c-3.5,0.5-7,0.2-10.5-0.5
	c-0.8-0.2-1.7-0.2-3.1-0.3c0.4,0.9,0.6,1.4,0.9,1.8c2.5,3,5,6,7.5,8.9c0.5,0.6,1,1,1.6,1.5c1.2,1,1.8,2,1.2,3.6
	c-0.5,1.4-0.9,3,0.4,4.4c0.5,0.5-0.3,3.2-0.9,3.6c-0.3,0.2-0.8,0.2-1.2,0.1c-1.2-0.5-2.4-1.1-3.5-1.7c-0.8-0.4-1.4-1-2.2-1.6
	c-0.3,0.4-0.6,0.7-0.9,1c-1.3,1.7-1.9,1.7-3.6,0.4c-1.1-0.9-2.3-1.7-3.5-2.6c-0.2-0.1-0.4-0.3-0.5-0.5c-2.6-4.7-6.1-8.6-9.7-12.5
	c-0.9-1-1.6-2.3-2.3-3.4C8,40.5,9,41.4,7.2,38.7C7,38.3,5.1,37.4,5,37c-0.4-2.2-2.8-3.8-4.4-5.2c-0.3-0.2-0.4-0.7-0.6-1.2
	c1.7-1.7,5.3-6.4,7-8.1c3.7-3.7,5.7-7.2,9.1-11.1c1.6-1.8,3.6-3.2,4.7-5.5c0.8-1.6,2.5-2.8,4.1-3.7c1.6-1,3.6-1.4,5.5-2.2
	c0.1,1.9,1.3,1.1,1.4,2.6c1.1,0.2,1,2.5,1.6,2.9C34.5,6.1,32.1,7.7,32,9c-0.1,2.4-0.2,2.1-0.2,4.5c0,0.4-2,1.5-2.2,1.9
	c-0.9,1.6-4.1,4.6-5.1,6.2c-0.1,0.1,6.8,0.5,6.7,0.9c0.5,0.3,1.1,0.6,1.8,0.9c1.8,0.7,3.6,1.5,5.5,1.9c1.9,0.4,4,0.5,6,0.5
	c2.2,0-7.9-0.3-5.7-0.4c2.6-0.1,5.2-0.1,7.8-0.1c1.7,0,3.4-0.1,5.1-0.1c5.3,0-4.2,0,1.1,0.3c4.1,0.3,8.3,0,12.5-0.1
	c1,0,2-0.1,2.9-0.1c1.1,0,1.8,0.6,2.1,1.7"/>
</svg>
