<?xml version="1.0" encoding="utf-8"?>
<!-- Generator: Adobe Illustrator 19.1.0, SVG Export Plug-In . SVG Version: 6.00 Build 0)  -->
<svg version="1.1" id="Layer_1" xmlns="http://www.w3.org/2000/svg" xmlns:xlink="http://www.w3.org/1999/xlink" x="0px" y="0px"
	 viewBox="0 0 78.6 69.9" style="enable-background:new 0 0 78.6 69.9;" xml:space="preserve">
<style type="text/css">
	.st0{fill:#FFFFFF;}
</style>
<path class="st0" d="M60.7,47c0,0.6,0,1,0.1,1.4c-0.1,0.1-0.2,0.2-0.3,0.2c-1.8,0.2-2.7,1.4-3.2,2.9c-0.4,1.1-0.3,1.2-1.5,1.4
	c-0.1,0.4-0.2,0.8-0.3,1.1c-0.3,0.7-0.7,1.3-1.6,1.3c-1.4,0-2,1.2-2.9,1.9c-0.1,0.1-0.1,0.2-0.1,0.3c0.6,1.1-0.6,1.4-0.9,2.2
	c-0.3,0.9-1.2,1-1.9,1.3c-0.6,0.3-1.2,0.9-1.7,1.4c-1.2,1.4-2.4,2.8-3.7,4.4c0.5,0.7,1.1,1.5,1.6,2.3c-0.1,0.1-0.2,0.3-0.3,0.3
	c-2.8,0.7-2.9,0.6-4.5-2c-0.4-0.7-0.9-1.4-1.3-2c-0.4-0.6-0.8-1-1.7-0.9c-0.6,0-1.4-0.3-1.9-0.7c-2.2-1.6-3.9-3.6-5.3-5.9
	c-0.2-0.4-0.2-0.9-0.4-1.3c-0.6-0.9-1.3-1.9-2.1-2.7c-1.3-1.3-2.7-2.5-4.2-3.9c-1.3,0.6-2.3-0.1-3.1-1.2c-1.1-1.3-1.9-2.7-3.2-3.7
	c-0.6-0.5-0.8-1.6-1.3-2.8c1.2,0.5,2.1,0.9,3,1.3c0.1-0.1,0.2-0.2,0.2-0.3c-3-3.4-5.9-6.9-9.6-10.2c0.1,1.2,0.9,1.7,1.3,2.2
	c0.6,0.7,1.1,1.4,1.2,2.4c0,0.5,0.6,1.1,1.1,1.4c1,0.6,1.3,1.5,1.6,2.5c-0.2,0.1-0.4,0.2-0.4,0.1c-1-0.8-2-1.7-2.9-2.6
	c-0.2-0.2-0.3-0.5-0.5-0.8c-0.1-0.1-0.1-0.3-0.1-0.3c-2.1-0.1-2.1-2.2-3.2-3.3c-0.8-0.8-1.2-2-1.9-3c-0.5-0.7-0.8-1.5-0.4-2.5
	c-1-0.1-1.4-0.7-1.7-1.5c-0.4-1.3-0.9-2.5-0.9-3.9c0-1-0.6-2.3-1.9-3.1c0.4-0.2,0.8-0.4,1.2-0.7c-0.5-0.2-0.8-0.4-1.2-0.6
	c0.1-0.2,0.1-0.3,0.2-0.5c0.1-0.3,0.4-0.7,0.4-1c-0.6-2,0-3.6,1.4-5c0.2-0.2,0.5-0.5,0.6-0.8c0.3-2.2,1.9-3.5,3.2-5
	c2.1-2.4,4.7-3.9,7.7-4.8c2-0.5,3.9-1.3,5.9-1.8c3.1-0.8,5.7,0.3,8.3,1.9c0.9,0.5,1.6,1.2,2.3,2c0.7,0.7,1.5,1.3,2.4,1.8
	c1.2,0.8,2.1,2,3.1,3.2c0.8,0.9,1.5,2,2.3,3c0.5,0.6,1,0.5,1.4-0.1c0.6-0.7,1-1.5,1.6-2.2c3.2-3.7,7.1-6.5,11.5-8.5
	c1.4-0.6,3-1,4.6-1.3c2.8-0.6,5.7-0.9,8.5-0.1c0.8,0.2,1.7,0.5,2.3,0.9c3.3,2.4,6.1,5.2,8.5,8.4c1.3,1.7,1.9,3.8,2.1,5.9
	c0.2,1.9,0.2,3.7-0.4,5.6c-0.5,1.6-0.9,3.3-1.3,4.9c-0.1,0.3-0.3,0.6-0.4,0.9c-0.2,0.6-0.4,1.1-0.6,1.7c-0.2,0.6-0.4,1.3-0.7,1.9
	c-0.6,1.1-1.3,2.1-2,3.1c-1,1.5-2,3-3.1,4.4c-2,2.4-3.8,4.9-6.3,6.9C62.7,45.9,62.2,47.2,60.7,47z M69.9,7.6c-0.2,1,0,1.5,0.5,2
	c0.5,0.5,1.1,1.1,1.1,1.7c0.1,1,0.8,1.4,1.3,2.3C73,10.9,71.8,9.2,69.9,7.6z M22.8,48.3c-1-1-1.9-1.9-2.9-2.9c0,1.5,0,1.5,1.1,2.6
	C21.4,48.3,21.7,48.9,22.8,48.3z M4.3,26.1c-0.6,0.1-1,0.3-0.8,1c0,0.1,0.4,0.4,0.5,0.3C4.7,27.2,4.6,26.7,4.3,26.1z"/>
</svg>
