<?xml version="1.0" encoding="utf-8"?>
<!-- Generator: Adobe Illustrator 19.1.0, SVG Export Plug-In . SVG Version: 6.00 Build 0)  -->
<svg version="1.1" id="Layer_1" xmlns="http://www.w3.org/2000/svg" xmlns:xlink="http://www.w3.org/1999/xlink" x="0px" y="0px"
	 viewBox="0 0 90.3 60.3" style="enable-background:new 0 0 90.3 60.3;" xml:space="preserve">
<style type="text/css">
	.st0{fill:#FFFFFF;}
</style>
<path class="st0" d="M0,4.6c0,0,0.3-0.2,0.4-0.4C0.9,3,1.7,2.1,3.3,2.3c1.3-0.9,2.8-0.8,4.2-1.1C8.7,1,9.9,0.9,11.2,0.9
	c5.1,0.3,10.1,0.4,15.2,0.2c4.8-0.1,9.6-0.2,14.3-0.4c3.2-0.1,6.4-0.1,9.6-0.2c1.4,0,2.8-0.3,4.2-0.4c2.8-0.2,5.5-0.4,8.3-0.1
	c1.8,0.2,3.7,0.1,5.5,0.3c1.5,0.1,2.9,0.4,4.3,0.7c2,0.5,3.9,1.2,5.8,1.7c0.4,0.1,0.9,0.2,1.3,0.1c1.1-0.3,1.9,0.3,2.6,1
	c0.4,0.4,0.7,0.8,1.3,0.9c0.8,0.3,1.2,1.1,0.9,2.1c-0.1,0.6,0,1.1,0.2,1.6c0.8,2.2,1.9,4.4,1.9,6.9c0,0.6,0.3,1.3,0.4,1.9
	c0.1,0.3,0.2,0.7,0.1,1c-0.7,1.6,0,3.1,0.3,4.6c0.3,1.7,1.2,3.3,0.8,5.1c0,0.1,0,0.3,0.1,0.4c1.1,2.4,1.1,4.8,0.8,7.4
	c-0.3,2.5-0.6,5-0.7,7.6c0,1,0,2-0.1,2.9c0,0.3,0.1,0.6,0.2,0.9c0.4,1.1,0.5,2.1-0.4,3c-0.1,0.1-0.2,0.2-0.3,0.3
	c-0.8,1.2-0.5,2.2,0.8,2.7c0.2,0.1,0.5,0.1,0.7,0.2c1,0.4,1.1,0.7,0.6,1.7c-0.7,1.3-1.9,2-3,2.8c-0.2,0.1-0.5,0.2-0.8,0.2
	c-1.8,0-3.6,0-5.4-0.1c-2.8-0.3-5.6,0.1-8.5-0.1c-1.4-0.1-2.7,0.1-4.1,0.2c-2.4,0-4.7-0.2-7.1,0.1c-1.7,0.2-3.5,0.1-5.2,0.3
	c-0.8,0.1-1.6,0-2.4,0c-1.1,0.1-2.2,0.4-3.3,0.5c-0.4,0.1-0.8,0.1-1.3,0.1c-2.2,0-4.4-0.1-6.6,0c-1.9,0.1-3.8,0.6-5.7,0.7
	c-1.4,0.1-2.9,0.1-4.3,0c-1.5-0.1-3.1-0.6-4.6-0.8c-0.8-0.1-1.6,0.1-2.4,0.1c-1.9-0.1-3.9-0.3-5.8-0.8c-0.9-0.3-2-0.3-2.9-0.5
	c-2.6-0.3-5-1.3-7.3-2.6c-1.3-0.8-2.5-1.6-3.5-2.8c-1.7-2.1-2.6-4.5-2.8-7.1c0-0.4-0.1-0.9-0.2-1.3c-1.1-3.3-0.8-6.8-1-10.3
	c0-0.8-0.3-1.7-0.3-2.5c-0.1-1.3,0-2.6-0.1-3.8c-0.2-2.8-0.5-5.5-0.8-8.3c-0.2-2.2-0.6-4.3-0.7-6.5c-0.1-1.8,0.1-3.6,0.2-5.3
	c0-0.5,0.2-0.9,0.1-1.4C0.3,5.8,0.2,5.4,0,4.6z M11.5,19.8c-0.1,0.3-0.1,0.4-0.1,0.5c0.2,0.8,0.4,1.7,0.6,2.5
	c0.2,0.8-0.5,1.7,0.1,2.5c0.1,0.1,0,0.3-0.1,0.4c-0.2,0.5-0.1,1,0.2,1.5c0.2,0.3,0.4,0.7,0.5,1c0.1,1.6,0.3,3.3,0.1,4.9
	c-0.1,1.1,0.1,2.2,0.3,3.2c0.4,2,0.6,3.9,0.8,5.9c0.1,1.1,0.2,2.4,1.2,3.4c0.7,0.6,1.1,1.7,0.8,2.8c-0.2,1,0.1,2,1,2.6
	c1.3,0.9,2.6,1.5,4.2,1.6c0.5,0,0.9,0,1.4,0c2.6,0.3,5.1,0.2,7.6-0.2c2.9-0.4,5.7-0.7,8.6-0.7c1.2,0,2.4-0.2,3.5-0.3
	c2.3-0.2,4.6-0.5,6.9-0.6c4.2-0.2,8.3-0.3,12.5-0.4c3.1-0.1,6.2-0.2,9.4-0.2c2.6,0,5.2-0.2,7.8,0.1c0.5,0.1,1,0,1.7-0.1
	c-0.1-0.6-0.1-1.2-0.4-1.6c-0.7-1.4-0.8-3-0.9-4.5c-0.1-1.1,0.2-2.3,0-3.4c-0.2-1.2,0.1-2.3,0.4-3.5c0.1-0.4,0.3-0.8,0.3-1.2
	c0.1-1.9,0.1-3.7,0.1-5.6c0-0.5,0-1-0.1-1.6c-0.1-1.4-0.1-2.9-0.4-4.3c-0.4-1.8-0.5-3.5-0.6-5.3c-0.1-1.5-0.2-3.1-0.2-4.6
	c-1,0.8-1.9,1.6-2.8,2.3c-0.6,0.5-1.2,0.9-1.8,1.3c-0.6,0.4-1.1,0.8-1.7,1.2c-0.2,0.2-0.5,0.3-0.7,0.4c-1.6,1-2.7,2.3-3.7,3.8
	c-0.8,1.1-1.8,2-2.8,3c-0.8,0.7-1.8,1.3-2.3,2.1c-1.1,1.8-3,2.7-4.4,4.1c-1.9,1.9-4.3,3.4-6.4,5c-0.7,0.5-1.4,0.8-2.2,1.2
	c-1.8,1-3.7,1.9-5.5,2.9c-0.1,0-0.2,0-0.3-0.1c-0.1-0.6-0.2-1.2-0.4-1.8c-0.2-0.6-0.5-1.1-0.9-1.8c-1,0.6-1.9,0.1-2.9-0.4
	c-1.8-0.8-3.4-1.9-5.1-2.9c-2.5-1.5-5.1-2.8-7.5-4.3c-3.7-2.2-7.2-4.7-10.8-7.1c-1.5-1-2.9-2-4-3.3C12.1,20.1,11.8,20,11.5,19.8z
	 M68.1,9.5c-2-0.5-2.9-0.6-4.4-0.1c-3,1-6,1.2-9.1,0.7c-0.7-0.1-1.4-0.4-2.1-0.4c-2.4,0.2-4.8-0.1-7.2,0.4c-3.2,0.7-6.5,0.7-9.7,0.2
	c-2.3-0.4-4.5,0-6.8-0.1c-1.7-0.1-3.4,0-5.2-0.1c-0.1,0-0.2,0-0.3-0.1c-1.5-0.3-2.9-0.6-4.4-1c-2.4-0.6-4.7-1.3-7.1-2
	c-0.3-0.1-0.6-0.1-0.9-0.1c0.2,0.4,0.6,0.7,0.9,0.9c1.5,1.1,3.2,2,4.5,3.4c1.7,1.7,3.6,3.1,5.3,4.9c0.6,0.6,1.2,1.2,1.9,1.7
	c2,1.3,4,2.6,6.1,3.9c0.4,0.3,0.8,0.4,1.3,0.7c2.1,1.2,4.2,2.5,6.4,3.7c1,0.6,2,1,3,1.5c2,1,4,2.1,6,3.1c0.5,0.3,0.9,0.2,1.3-0.3
	c1.8-2.3,3.7-4.6,5.6-6.9c1-1.2,1.9-2.4,2.9-3.4c1.3-1.4,2.7-2.7,4-3.9c1.8-1.6,3.6-3.2,5.4-4.8c0.2-0.2,0.6-0.4,0.9-0.5
	C67.4,10.8,67.7,10.2,68.1,9.5z"/>
</svg>
