<?xml version="1.0" encoding="utf-8"?>
<!-- Generator: Adobe Illustrator 19.1.0, SVG Export Plug-In . SVG Version: 6.00 Build 0)  -->
<svg version="1.1" id="Layer_1" xmlns="http://www.w3.org/2000/svg" xmlns:xlink="http://www.w3.org/1999/xlink" x="0px" y="0px"
	 viewBox="0 0 40.9 79.9" style="enable-background:new 0 0 40.9 79.9;" xml:space="preserve">
<style type="text/css">
	.st0{fill:#FFFFFF;}
</style>
<path class="st0" d="M9.7,54.5c-0.5-0.7-0.6-1.5-0.5-2.5c0.1-0.7-0.1-1.4-0.1-2.1c0-1.9-0.1-3.8-0.1-5.6c0-1,0-2,0-3
	c-0.4-0.1-0.7-0.3-1-0.3c-0.8-0.2-1.6-0.4-2.4-0.7c-0.4-0.1-0.8-0.3-1.2-0.3c-2.2-0.3-3.5-1.8-4.4-3.7c0.3-0.6,0.8-0.8,1.4-0.7
	c1.4,0.1,2.8-0.1,4.2-0.5C6.6,35,7.7,35.1,8.8,35c0.2,0,0.5,0,0.7-0.1c0.5-1.5,0.6-3,0.5-4.5c-0.2-2.6-0.5-5.2-0.6-7.8
	c-0.1-2.7,0-5.5,1.1-8c0.9-2.1,1.9-4.2,3-6.2c1.3-2.4,3.4-4.2,5.7-5.7c1.7-1.2,3.7-2,5.9-1.9c0.4,0,0.8-0.1,1.2-0.3
	c1.7-0.5,3.4-0.9,5.2-0.4c1.5,0.4,2.9,0.9,4.4,1.2c1,0.2,1.6,0.6,2.3,1.2c1.1,0.9,1.9,1.9,2.6,3.2c0.5,0.9,0.1,1.5-0.3,2.1
	c-0.4,0.6-1,0.5-1.5,0.4c-1.4-0.2-2.8-0.4-4.2-0.2c-1.5,0.1-3,0-4.6,0.1c-1.8,0.1-3.6,0.5-5.3,1.2c-0.9,0.3-1.6,0.8-2.2,1.6
	c-0.2,0.3-0.6,0.5-0.8,0.8c-0.3,0.3-0.5,0.6-0.7,1c-0.5,1.3-1,2.6-1.4,3.8c-0.2,0.5-0.3,1-0.4,1.6c-0.2,1.2-0.5,2.5-0.6,3.7
	c-0.1,1.4,0,2.9-0.2,4.3c-0.3,1.9,0.4,3.8,0.3,5.7c-0.1,0.5,0.2,1.1,0.3,1.8c0.8,0.8,1.8,0.8,2.9,0.6c0.7-0.1,1.5,0,2.2,0
	c1.1-0.1,2.2-0.2,3.4-0.3c0.2,0,0.3-0.1,0.4,0c1.3,0.8,2.9,1.4,3.8,2.8c0.4,0.6,0.9,1,1.3,1.5c-0.3,0.5-0.5,0.9-0.7,1.4
	c-0.3,0.1-0.7,0.2-1.1,0.2c-0.7,0.1-1.2,0.4-1.5,1.1c-0.2,0.6-0.7,0.8-1.3,0.9c-1.5,0.4-3,0.1-4.6,0.2c-0.8,0-1.6-0.1-2.4-0.1
	c-0.4,0-0.9,0.2-1.4,0.4c0.1,0.6,0.1,1.1,0.3,1.6c0.3,1,0.5,2,0.4,3c-0.2,1.2,0.2,2.3,0.5,3.4c0.2,0.9,0.3,1.8,0.5,2.7
	c0.1,0.7,0.2,1.4,0.3,2c0,0.1,0.1,0.2,0,0.3c-0.5,1.1-0.1,2.2-0.1,3.3c0,0.1-0.1,0.2,0,0.3c0.7,1.8,0.3,3.6-0.2,5.3c0,0,0,0.1,0,0.1
	c0.4,0.9-0.1,1.8,0.2,2.6c0.4,1.3-0.1,2.6,0.1,3.8c0,0.1-0.1,0.3-0.2,0.4c-0.5,0.5-0.4,1.1-0.2,1.7c0.3,1,0,2.1,0,3.1
	c0,1.1-0.6,2.2-1,3.6c-0.2-0.4-0.3-0.6-0.3-0.8c-0.3-0.7-0.4-0.8-1.3-0.6c-0.2,0-0.5-0.1-0.7-0.2c-0.2-0.2-0.4-0.4-0.7-0.7
	c-0.3,0.3-0.6,0.5-0.9,0.8c-0.2-0.3-0.4-0.5-0.6-0.8c-0.7,0.4-0.1,0.9-0.3,1.3c-1.1,0-2.3,0.1-3.4,0c-1-0.1-1.6-1.1-2-1.9
	c-0.6-1.2-0.7-2.6-0.7-3.9c-0.1-2,0.1-4.1,0.3-6.1c0-0.3,0-0.6,0.2-0.8c0.9-1.3,0.5-2.6,0.1-3.9c-0.4-1.2-0.4-2.4-0.6-3.6
	c-0.2-1-0.1-2.1-0.1-3.2C9.4,55.3,9.6,54.9,9.7,54.5z M10.4,45.6C10,47,10,47,10.7,47.4c0.2-0.4,0.3-0.9,0.5-1.4
	C11,45.9,10.8,45.7,10.4,45.6z M11.5,48.4c-0.6,0.5-1.1,0.6-1.3,1.2c0.3,0.1,0.5,0.2,0.7,0.2c0.2,0,0.4,0,0.6,0
	C11.5,49.4,11.5,49,11.5,48.4z M11.3,50.4c-0.7,1.4-0.7,1.4,0,2C11.5,51.8,11.7,51.2,11.3,50.4z M10.3,41.7
	c-0.1,0.7-0.1,1.1-0.2,1.6C11,43,11.1,42.8,10.3,41.7z M10.8,45c0.1-0.2,0.2-0.3,0.2-0.3c0-0.1-0.1-0.1-0.2-0.2
	c0,0.1-0.1,0.1-0.1,0.2C10.7,44.7,10.8,44.8,10.8,45z"/>
</svg>
