<?xml version="1.0" encoding="utf-8"?>
<!-- Generator: Adobe Illustrator 19.1.0, SVG Export Plug-In . SVG Version: 6.00 Build 0)  -->
<svg version="1.1" id="Layer_1" xmlns="http://www.w3.org/2000/svg" xmlns:xlink="http://www.w3.org/1999/xlink" x="0px" y="0px"
	 viewBox="0 0 1013.3 216.7" style="enable-background:new 0 0 1013.3 216.7;" xml:space="preserve">
<style type="text/css">
	.st0{fill:#282928;}
</style>
<g>
	<path class="st0" d="M348.4,41.1c1.9,1.3,2.9,2,3.9,2.6c0.1,0.5,0.1,0.9,0.2,1.4c-2.8,0.7-5.6,2.1-8.3,1.9
		c-5.2-0.4-10.3-1.5-15.4-2.8c-7.1-1.7-9.6-0.4-9.4,6.5c0.3,12.3,0.9,24.5,1.9,36.8c1.5,18.3,3.4,36.6,5.3,54.8
		c1.2,11.4,2.5,22.7,3.8,34c0.5,4.2-0.3,7.9-3.7,10.6c-2.6,2.1-5.2,3.4-8.6,0.5c-2-1.8-4.9-2.9-7.6-3.5c-4.1-0.9-5.6-3.5-6.2-7
		c-2.2-14.8-4.3-29.6-6.5-44.4c-2.6-18.2-5.5-36.3-7.9-54.5c-1.2-9.1-1.4-18.3-2-27.5c-0.5-7.4-1.2-8-8.6-8.1
		c-10.1-0.1-20.3-0.4-30.4-0.6c-5.2-0.1-11.1-5.6-13-11.9c-1.4-4.6,1.1-10.3,5.2-13.6c4.9-4,10.9-4.7,16.7-6.1c1.7-0.4,3.6-0.2,5-1
		c9.7-5.5,20.2-2.7,30.4-3c12.1-0.4,24.3-0.4,36.4,0.1c8.4,0.3,16.9,1.3,25.1,3c6.8,1.3,11.9,9.4,11.7,16.4
		c-0.2,6.2-4.7,10.9-12.1,12.8C352.7,39.2,351.1,40.1,348.4,41.1z"/>
	<path class="st0" d="M105,66.8c-5.4,10.3-10.4,20.9-17,30.4c-0.9,3.4-0.8,6.9-4.8,9.3c-1.7,1-4.9,3.7-1.9,6.9
		c-2.6,2.9-4.8,7.4-8,8.2c-7.3,1.9-14.4-0.7-19.4-6.5c-5.3-6.2-9.9-13-15-19.3c-1.6-2-3.7-3.4-5.6-5.1c-0.4,0.2-0.9,0.4-1.3,0.7
		c-0.4,5.9-1,11.7-1.1,17.6c-0.2,11.4-0.2,22.9-0.1,34.3c0.1,6.3,0.9,12.6,1.1,19c0.3,8.2-5.3,11.7-11.6,12.6
		c-5.5,0.7-10.5-1.8-12.6-9.5c-1.5-5.2-2.2-10.7-2.7-16.2c-1.2-13.6-2.1-27.3-2.9-40.9c-0.4-6.3,0-12.7-0.4-19
		C1.2,80.7-0.1,72.1,0,63.5c0-6.1,1.5-12.2,2.8-18.2c1-4.6,2.9-9.1,4.3-13.7c1.6-5,8.2-9.9,13.2-9.9c5.5,0.1,13.1,5.1,14.5,10.3
		c2.8,11.1,8.6,20.7,14.5,30.4c6,9.7,12,19.4,18.1,29.1c0.7,1.2,2.2,1.9,3.3,2.8c0.6-1.2,1.3-2.3,1.6-3.6c2.1-8.3,4-16.6,6.3-24.8
		c3.2-11.6,6.8-23.1,10.2-34.7c0.5-1.7,0.6-3.6,0.6-5.4c-0.2-9.1,5-14.6,14.2-14.8c3.4-0.1,6.7-0.2,10-0.5
		c12.2-1.3,21.6,5.4,23.9,17.8c0.7,3.6-0.3,7.5-0.2,11.3c0.2,4.9,0.9,9.7,1.4,14.6c0.1,1,0.5,1.9,0.5,2.9
		c0.9,15.2,1.6,30.4,2.7,45.5c0.6,8.1,2.1,16.2,3,24.3c1.2,9.8,2.2,19.7,3.4,29.5c0.2,1.5,0.7,3,0.8,4.5c0.1,4.3,0,8.6,0,12.7
		c-2,0-3.6,0-4.9,0c0.7,1.9,1.3,3.6,1.6,4.4c-2.7,0.4-4.6,0.5-6.3,1c-2.9,0.8-8.7-1.1-11.1-3.8c-1.1-1.3-2.7-2.2-3.8-3.4
		c-1-1.1-2.1-2.3-2.4-3.7c-1.9-8.2-4-16.4-5.4-24.6c-3-17.1-5.6-34.3-8.2-51.4c-0.5-3.2-0.3-6.5-0.5-9.7c-0.4-5.1-1-10.2-1.6-15.4
		C105.9,66.9,105.4,66.8,105,66.8z"/>
	<path class="st0" d="M604,107.1c3.2,2.9,6.6,5.9,9.8,8.9c12.3,11.3,23.7,23.3,33.1,37.2c4.4,6.5,8.8,13,13.1,19.6
		c2.1,3.3,0.8,5-2.6,6.8c-3.6,1.9-7,4.6-9.8,7.6c-4.2,4.5-9.3,3.8-13.2-1.5c-7.2-9.7-14.8-19-22.4-28.3c-4.5-5.4-9.3-10.6-14.2-15.7
		c-5.4-5.5-11.1-10.7-16.7-16c-1-1-2.6-1.3-4.7-2.4c-0.3,3.8-0.8,6.8-0.8,9.8c-0.1,15,0,29.9-0.2,44.9c-0.1,10.1-6.9,16.7-16.4,16.4
		c-5.5-0.2-12.3-5.3-13.3-10.7c-1.2-6.8-2.7-13.6-2.7-20.4c-0.1-24.6,0.7-49.3,0.7-73.9c0-18.7-0.9-37.5-1.2-56.2
		c-0.1-7.8,3.1-14.6,9-19.8c4.1-3.5,8.6-2.9,13.7-0.3c2.5,1.3,6,1.1,8.9,0.6c8.7-1.5,17.3-2.3,26.1-0.6c8.7,1.7,16.4,5.2,23.7,10.6
		c10.9,8.1,15.9,18.8,16.5,31.8c0.4,8.3-1.9,16.4-6.6,23.2c-3.6,5.3-8.1,10-12.7,14.4C615.9,97.9,610.1,102.1,604,107.1z
		 M577.3,77.6c0.1,0,0.1,0,0.2,0c0,3.2,0.4,6.6-0.1,9.7c-0.6,3.9,1.3,4.8,4.4,4.8c2,0,4.2,0,5.8-0.9c11.7-6.9,21.3-15.8,24.7-29.6
		c1.1-4.5,0.4-9.6-2.7-12.3c-7.1-6.1-15.6-9.9-25.4-6.3c-3.2,1.2-7.2,2-7,7.1C577.5,59.3,577.3,68.4,577.3,77.6z"/>
	<path class="st0" d="M465.5,10.8c11.6,0.7,14.6,1.1,25.1,7.1c8.4,4.8,11.7,15.2,6.5,22c-4.8,6.3-11.6,6.3-18.5,5.3
		c-9.5-1.3-10.4-1.9-19.9-3.2c-14.3-2-3.9-1.4-18.2-3.2c-4.2-0.5-8.4-0.5-12.7-0.6c-2.4-0.1-3.3,1-3.1,3.7
		c0.8,14.2,1.6,28.5,1.9,42.8c0.1,4.2,1.8,5.3,5.3,4.9c10-1,20-2.3,30-3c8.3-0.6,16.6-0.8,24.9-0.5c9.2,0.4,13.2,5.2,12.7,14.2
		c-0.2,3.8-4.2,7.8-8.8,8.4c-3.1,0.4-6.2,0.2-9.3,0.5c-10.2,1-20.4,2.3-30.7,3.2c-6.9,0.6-13.8,0.8-20.6,1.3c-1.5,0.1-3,0.5-4.9,0.8
		c-0.6,17.2-1.1,33.9-1.7,51c1.1,0.1,2.3,0.5,3.5,0.4c13.3-0.6,35-1.2,48.3-1.9c7.8-0.4,11.4,0.9,13,7.2c0.9,3.7,2.5,8.5-0.5,12.2
		c-1.2,1.5-3.8,2.4-5.9,2.6c-14,0.9-36.6,1.2-50.6,2.4c-6.6,0.6-13,2.5-19.4,4.2c-5.3,1.4-10.1,0.8-14.3-2.9
		c-4-3.4-4.6-7.2-2.8-12.2c1-2.8,1.7-5.9,1.8-8.9c0.1-22.6,0.3-45.2-0.1-67.7c-0.2-15.8,0.6-31.7-3.2-47.2
		c-0.9-3.8-2.4-7.5-3.9-11.2c-4.2-10.1-1.8-18.1,7.1-24.3c1.5-1,2.8-2.4,3.7-4c5.3-8.8,13-11.6,22.2-7.4"/>
	<path class="st0" d="M1000.6,166.1c-6.3,2.3-12.7-1.1-18.2,4c1.7,0.5,3.3,1.2,5,1.3c4.5,0.2,9-0.2,13.5,0.1c2.6,0.1,5.1,1,6.8,1.3
		c-0.6,4.5-1.1,8.3-1.6,12.4c1-0.1,2.3-0.4,3.5-0.3c1.3,0.1,2.6,0.6,3.9,0.8c-0.4,1.4-0.4,3.6-1.3,4.1c-2.5,1.3-5.4,2.1-8.2,2.8
		c-2,0.5-4.1,0.6-6.2,1c-1.7,0.3-3.3,1.1-4.9,1c-20.8-1.9-41.5,0.8-62.2,1.5c-15.2,0.5-13.5,0.7-28.7,1.3c-3.6,0.1-7.3,0.8-10.8,1.8
		c-8,2.3-20.1-4.7-20.4-14.8c-0.4-11.4-1.3-22.8-1.3-34.2c-0.1-20.8,0-41.7,0.3-62.5c0.3-19.8,1-39.5,1.5-59.3
		c0.1-4.6-0.3-9.3,0.1-13.8c0.8-9.1,11.4-14.2,19.4-14.6c8-0.4,15,4.9,17.9,13c2.1,5.7,1.7,11.4,0.1,17.1c-4,14.8-5.7,29.9-6.4,45.2
		c-0.6,15.2-2,30.3-2.8,45.5c-0.6,10.6-0.8,21.1-0.9,31.7c0,0.9,1.6,2.5,2.5,2.5c10.4,0.7,3.9,1.1,14.3,1.6c9,0.4,18.1,0.5,27.1,1.2
		c4.5,0.4,8.9,2.1,13.4,2.8c3.4,0.5,7,0.2,10.5,0.4c6.7,0.4,13.5,1.3,20.2,1.4c3.7,0.1,7.5-1.8,11,0.9
		C998.4,164.1,999.4,165,1000.6,166.1z"/>
	<path class="st0" d="M180.2,56.7c0-5.3-0.9-10.8,0.3-15.8c1-4.3,1.6-7.9,0.3-12.2c-2.8-9.8,6.5-17.5,15-16.7
		c9.7,0.8,14,3.3,15.2,12.8c1.1,8.9,5.3,16.3,8.6,24.2c5.5,13,11.3,25.8,17.4,38.5c6.6,13.8,11.9,28,15.4,42.9
		c2.2,9.5,3.9,19.1,5.5,28.7c0.8,4.8-5.2,10.6-11.3,11.2c-7,0.8-12.4-3.1-14-10c-0.2-0.8-0.3-1.7-0.7-2.4c-2-4-0.3-10-5.4-12
		c-4.1-1.5-8.8-1.5-13.3-2.2c-3.8-0.5-7.6-1.1-11.3-1.6c-3.6-0.5-6.2-0.1-6.7,4.6c-0.9,8.8-2.2,17.5-3.6,26.2
		c-1.3,8.3-4.5,13.9-13.4,14.1c-8.2,0.1-15.3-6.6-14.9-16.4c0.3-8.6,1.3-17.2,2.6-25.7c2.4-15.9,5.2-31.7,8-47.5
		c1.6-9.2,3.8-18.2,5.5-27.4c0.8-4.4,1.1-8.9,1.6-13.4C180.8,56.7,180.5,56.7,180.2,56.7z M207.9,97.7c-0.5,0.1-1,0.3-1.6,0.4
		c-1.3,5.1-2.8,10.2-3.8,15.4c-0.2,1,1.4,3.3,2.5,3.5c4.5,0.9,9.1,1.1,14.4,1.7C216,110.8,213,103.6,207.9,97.7z"/>
	<path class="st0" d="M717.7,38.6c-0.5,11.7-1.5,23.4-1.4,35.2c0,11.9,1.5,23.7,1.6,35.6c0.1,12.8-0.7,25.7-0.9,38.5
		c-0.1,11.1,0.2,22.3,0.4,33.4c0.1,5.9,0.6,11.8,0.5,17.7c-0.1,7.8-6.4,12.5-14.3,11.8c-7.6-0.7-13.5-3.7-16.1-11
		c-1.1-3.1-0.7-6.9-0.8-10.3c-0.4-21.2-0.3-42.4-1.2-63.6c-0.6-15.2-2.6-30.4-4-45.5c-0.8-8.4-1.4-16.9-2.5-25.3
		c-0.5-4-1.4-8.1-2.8-11.9c-2.9-8.2-1.2-18.6,4.4-23.7c7.1-6.5,17.6-8.5,25.2-4.8c8,3.9,10.6,11.2,11.8,19.3
		C717.9,35.5,717.7,37.1,717.7,38.6z"/>
	<path d="M658,189c-1.4,4.8-5.8,5.9-11.7,3C650.6,190.9,654,190,658,189z"/>
	<path d="M663.5,183.2c-1.3,1.6-2.5,3.3-3.9,4.8c-0.1,0.1-1.4-1.1-2.2-1.6c1.3-1.6,2.6-3.2,4-4.9
		C662.1,182.1,662.8,182.6,663.5,183.2z"/>
	<path class="st0" d="M855.8,199.1c-0.7-3.1-0.9-6.4-1.1-9.6c-1.2-17.5-6.1-34.1-12.1-50.4c-2.5-6.7-5.3-13.5-6.6-20.4
		c-1.1-5.5-0.2-11.5-0.2-17.2c0.4-0.1,0.9-0.3,1.3-0.4c-1.3-2.7-2.6-5.4-4-8c-1.8-3.5-4.1-6.8-5.4-10.4c-2.1-6-3.8-12.1-5.4-18.3
		c-3.2-11.8-6.3-23.7-9.5-35.6c-0.6-2.2-1.5-4.3-2.8-6.2c-3.2-4.9-8.1-7.4-13.8-6.5c-6,0.9-11.6,3.5-14.2,9.5
		c-2.7,6.2-4.8,12.7-6.8,19.1c-1.8,6.1-3,12.3-4.7,18.5c-2.9,10.2-6.2,20.2-8.8,30.4c-1.7,6.8-2.3,13.9-3.5,20.9
		c-1.6,8.9-3.4,17.7-5.1,26.5c-1.3,6.5-2.5,12.9-4.1,19.3c-2.2,8.8-5.1,17.5-7.2,26.4c-1.3,5.7,3.5,12.1,10,14.4
		c6.6,2.4,13,0.6,16.2-5c1.4-2.5,1.6-5.5,2.5-8.3c3.3-9.3,6.5-18.6,10.1-27.8c0.5-1.2,2.5-2.3,3.9-2.4c7.9-0.7,15.8-1.2,23.7-1.4
		c7.9-0.2,8,0,10.1,7.2c1.6,5.4,3.2,10.8,4.3,16.3c1.5,8.2,2.5,16.4,3.9,24.6c1.3,7.8,11.8,16.7,21.1,10.9
		C853.6,210.9,857.7,207,855.8,199.1z M791.1,129.7c-1.9,0-3.9-0.6-3.4-3.2c2.5-11.2,5.2-22.4,7.8-33.6c0.1-0.2,0.4-0.4,1.3-1.2
		c1.2,2.1,2.9,3.9,3.4,5.9c2.6,10.6,4.9,21.3,7.3,32.1C801.2,129.7,796.2,129.8,791.1,129.7z"/>
</g>
</svg>
