<?xml version="1.0" encoding="utf-8"?>
<!-- Generator: Adobe Illustrator 19.1.0, SVG Export Plug-In . SVG Version: 6.00 Build 0)  -->
<svg version="1.1" id="Layer_1" xmlns="http://www.w3.org/2000/svg" xmlns:xlink="http://www.w3.org/1999/xlink" x="0px" y="0px"
	 viewBox="0 0 115.1 62.2" style="enable-background:new 0 0 115.1 62.2;" xml:space="preserve">
<style type="text/css">
	.st0{fill:#FFFFFF;}
</style>
<g>
	<path class="st0" d="M112.9,14.5c0.7,0.3,1.2,0.5,1.7,0.8c-0.2,0.5-1.1,0.5-0.7,1.2c-0.5,0.3-1.1,0.6-1.6,0.8
		c-0.4,0.1-0.9,0.1-1.3,0.1c-0.3,0.1-0.7,0.2-1,0.5c0.3,0,0.6,0.1,1,0.1c0,0,0,0.1,0,0.1c-0.7,0.1-1.4,0.2-2.2,0.3
		c-0.1-0.2-0.3-0.4-0.5-0.7c-0.7,0.2-1.5,0.4-2.3,0.6c-0.2,0-0.4,0-0.6,0c-0.7-0.1-1.3-0.2-2,0.1c-0.9,0.3-1.9,0.3-2.8,0.4
		c-0.1,0-0.2,0-0.3-0.1c-0.7-0.5-0.7-0.5-1.3-0.3c-0.4-0.1-0.4-0.9-1.1-0.5c0.1,0.3,0.2,0.6,0.3,0.9c-0.4,0.5-0.8,0.6-1.4,0.4
		c-0.4-0.1-0.8-0.1-0.8,0.6c-0.4-0.4-0.6-0.7-0.9-1c-0.3-0.3-0.6-0.5-0.9-0.2c-1,1-2.1,0.7-3.2,0.4c-0.7-0.2-1.4-0.3-2.2-0.1
		c-0.6,0.1-1.2,0-1.9,0c0-0.1-0.1-0.2-0.3-0.4c-0.2,0.1-0.5,0.2-0.6,0.3c-0.7,0.5-1.4,0.6-2.1,0.2c-0.3-0.1-0.6-0.1-1,0
		c-0.5,0.1-0.9,0.3-1.5,0.5c0.1-0.3,0.1-0.5,0.2-0.9c-0.5,0.1-0.9,0.2-1.2,0.3c-0.9,0.3-1.7,0.1-2.5-0.7c-0.3,0.3-0.6,0.6-1,0.8
		c-0.3,0.2-0.8,0.5-1,0.4c-0.7-0.4-1.5,0.1-2.2-0.2c-0.2-0.1-0.5,0.2-0.7,0.3c-0.8-0.2-1.5-0.3-2.2-0.5c-0.1,0-0.3-0.1-0.4,0
		c-0.6,0.3-1.2,0.2-1.8,0C68,19.1,67.4,19,66.9,19c-0.5,0-0.9,0-1.4-0.2c-0.2-0.1-0.7-0.2-0.9,0c-0.6,0.4-1.2,0.2-1.8,0.1
		c-1.3-0.2-2.7-0.1-3.9-0.7c-0.1-0.1-0.3,0-0.4,0c-1.6,0.3-3.1,0.3-4.7,0c-0.6-0.1-1.1,0-1.5,0.5c-0.4,0.5-0.8,1.1-1.2,1.6
		c-0.2,0.3-0.4,0.6-0.6,0.8c-0.4,0.4-0.6,0.8-0.6,1.5c0,0.5-0.5,1.2-1,1.5c-1.2,0.9-2.4,1.9-3.8,2.4c-1,0.4-2,0.9-3,1.2
		C41.5,28,40.7,28,40,28.1c-1.4,0.2-2.7-0.1-4-0.4c-0.5-0.1-1.1-0.1-1.7-0.3c-2-0.7-3.9-1.8-5.6-3.1c-1.3-1.1-2.5-2.4-3.7-3.6
		c-0.6-0.6-1-1.4-1.4-2.2c-0.2-0.4-0.6-0.5-1-0.6c-1.3-0.4-2.5-0.3-3.9-0.3c-2.7,0.1-5.4,0.2-8.1-0.4c-0.9-0.2-1.8-0.3-2.7-0.6
		c-1.3-0.4-2.7-0.4-4-0.3c-0.8,0-1.3-0.3-1.6-1.1c-0.3-0.9-0.9-1.6-1.6-2.1C0.4,13,0.2,12.6,0,12.3c0.3-0.6,0.8-0.8,1.3-0.8
		c0.6,0,1-0.1,1.3-0.6C3.2,10,4.2,10,5.1,9.9c3.4-0.2,6.7-0.4,10.1-0.2c2.4,0.1,4.8,0.1,7.2,0.2c0.7,0,1.1-0.2,1.3-0.8
		c0.7-1.6,2-2.8,2.9-4.3C27.3,3.9,28.2,3.5,29,3c0.2-0.1,0.5-0.3,0.7-0.3c1.1-0.1,1.9-0.7,2.6-1.4c0.2-0.2,0.4-0.4,0.6-0.4
		c0.8,0.1,1.5-0.3,2.2-0.5c1.4-0.6,2.8-0.4,4.1-0.1c1.6,0.4,3.2,0.9,4.9,1.5c0.3,0.1,0.7,0.3,1,0.6c0.8,0.7,1.5,1.4,2.4,2
		c1.5,1,2.5,2.5,3.7,3.7c0.4,0.4,0.5,1.1,0.8,1.7c2.7,0.3,5.3,0.4,7.9,0.5c2.9,0,5.9,0.1,8.8,0.2c2.9,0.1,5.8,0.1,8.7,0.3
		c1.5,0.1,3.1,0.3,4.6,0.3c0.8,0,1.6-0.2,2.4-0.3c1.9-0.1,3.8-0.1,5.8-0.1c0.4,0,0.7-0.1,1.1-0.1c3.5,0,7.1,0,10.6,0
		c1,0,2-0.2,3-0.3c0.8-0.1,1.6-0.1,2.2,0.6c0.2,0.2,0.6,0.3,0.9,0.3c1.3,0.1,2.7,0,4,0.1c0.6,0.1,1.2,0.3,1.8,0.6
		c0.1,0,0.2,0.5,0.1,0.7C113.7,13.2,113.3,13.9,112.9,14.5z M34.1,6.6c0.3,0.6,0.8,1,0.7,1.4c-0.2,1.4-0.4,2.7-1.5,3.8
		c-0.4,0.4-0.7,1-1,1.6c-0.2,0.5-0.3,1.1-0.5,1.7c0.7,0.2,0.2,0.7,0.2,1.1c0.3,0.2,0.5,0.4,0.8,0.7c-0.5,0.4-0.9,0.7-1.4,1
		c0.1,1.9,1.1,3.3,2.6,4.3c1.1,0.7,2.3,0.6,3.3,0.1c1-0.5,2-1.2,3-1.8c1-0.7,1.9-1.7,2.1-2.8c0.4-1.9,1-3.8,0-5.7
		c-0.1-0.2-0.1-0.4-0.1-0.6c0-0.5,0-1.1,0-1.6c0-1.3-0.1-2.6-1.1-3.5C40.5,6.1,39.8,6.1,39,6c-0.5-0.1-1-0.3-1.5-0.2
		c-0.5,0.1-1,0.4-1.6,0.5C35.3,6.4,34.8,6.5,34.1,6.6z M95.2,17.8c0,0.1,0,0.1,0,0.2c0.2,0,0.3,0.1,0.5,0.1c0-0.1,0-0.1,0-0.2
		C95.5,17.9,95.4,17.8,95.2,17.8z"/>
	<path class="st0" d="M108.5,49.6c-0.1,0.3-0.2,0.6-0.3,0.9c-1.1,0.2-2.1,0.5-3.2,0c-0.1,0-0.2,0-0.2,0c-1.8,0.5-3.6-0.2-5.3-0.4
		C98.7,50,98,50,97.2,50c-1.6,0.1-3.3,0.2-4.9,0.7c-0.2,0.1-0.5,0.1-0.7,0c-0.8-0.2-1.5,0.1-2,0.8c0.1,0.3,0.1,0.6,0.2,0.9
		c0.2,0.6,0.1,1.1-0.3,1.6c-0.2,0.2-0.2,0.6-0.4,1c-0.2,0-0.5,0-0.8,0c0,0.1-0.1,0.2-0.1,0.2c0.4,0.4,0.3,0.8-0.1,1.1
		c-0.5,0.4-0.8,1-1.2,1.6c-0.6,0.8-1.2,1.6-2.4,1.7c-0.9,0.1-1.7,0.2-2,1.3c0,0.2-0.4,0.4-0.6,0.4c-1-0.1-1.9,0.5-3,0.1
		c-0.9-0.3-1.8-0.2-2.6,0.7c-0.4-0.6-0.7-1-0.9-1.3c-0.6-0.3-1-0.5-1.4-0.7c-1.1-0.7-2.2-1.3-3.2-2.1c-1-0.8-1.9-1.7-2.8-2.6
		c-0.3-0.3-0.6-0.6-1-0.6c-1-0.1-1.5-0.9-1.9-1.7c0-0.1,0-0.2-0.1-0.3c-0.3-1.3-0.6-1.5-2-1.2c-0.5,0.1-1,0.1-1.4,0.1
		c-0.4,0-0.7,0-1.1,0c-0.5,0-1.1,0-1.5-0.2c-0.5-0.2-0.9-0.2-1.4-0.1c-1.1,0.2-2.3,0.5-3.4-0.2c-0.2-0.1-0.6,0-0.9,0
		c-0.8,0.2-1.6,0.4-2.5,0.2c-0.8-0.2-1.7,0-2.5,0c-0.2,0-0.6,0-0.7-0.2c-0.4-0.4-0.8-0.4-1.3-0.3c-1.2,0.4-2.4,0.6-3.7,0.3
		c-0.8-0.2-1.7,0.1-2.5-0.3C40,50.8,39.8,51,39.6,51c-0.3,0.1-0.6,0.2-0.9,0.1c-0.9-0.4-1.7,0-2.5,0c-0.9,0-1.7-0.2-2.6,0
		c-0.4,0.1-0.9-0.4-1.6-0.7c-0.7,0.2-1.8,0.4-2.8,0.6c-0.1,0-0.2,0.1-0.2,0c-0.8-0.4-1.7,0-2.6-0.2c-0.4-0.1-1-0.2-1.3,0
		C24.6,51.2,24,51,23.4,51c-1-0.1-1.9-0.1-2.9-0.2c-2.7-0.1-5.4-0.6-8-1.1c-0.8-0.1-1.6-0.4-2.4-0.6c-1.2-0.3-2.5-0.6-3.7-0.9
		c-0.4-0.1-0.7-0.3-1-0.5c-0.6-0.4-1.1-0.8-1.7-1.2c-0.2-0.2-0.5-0.3-0.7-0.5c-0.6-0.8-0.2-1.6,0.7-1.8c0.3-0.1,0.7-0.1,1-0.1
		c3.8,0,7.7-0.5,11.5-0.7c2.3-0.2,4.6-0.5,6.9-0.6c2.2-0.2,4.4-0.3,6.6-0.3c3.2-0.1,6.5,0,9.7,0c2.2,0,4.4-0.1,6.6,0
		c1.1,0.1,2.3-0.1,3.3,0.1c2.1,0.3,4.2,0.1,6.4,0.2c1.9,0.1,3.9,0.2,5.8,0.3c0.7,0,1.3,0.1,2,0.1c0.5,0.1,0.7-0.2,0.9-0.7
		c0.2-0.8,0.4-1.6,0.7-2.4c0.2-0.5,0.4-1,0.7-1.4c0.2-0.4,0.8-0.7,0.5-1.4c-0.1-0.1,0.3-0.5,0.5-0.7c0.9-0.6,1.9-1.3,2.9-1.8
		c0.6-0.3,1.2-0.5,1.8-0.7c2.2-0.6,4.5-1.1,6.9-0.8c2.6,0.2,4.4,1.8,6.5,2.8c0.6,0.3,1.1,0.7,1.6,1c0.9,0.6,1.7,1.3,2.2,2.3
		c0.3,0.6,0.6,1.2,0.9,1.8c0.4,0.8,1.4,1.2,2.4,1.2c1.1,0,2.3,0,3.4-0.1c0.8,0,1.7-0.1,2.5-0.1c0.8,0,1.6-0.1,2.4-0.1
		c0.8,0,1.7,0,2.5-0.1c0.7-0.1,1.3,0.2,1.8,0.4c0.8,0.3,1.4,0.2,2.2-0.1c0.4-0.1,0.8-0.1,1.2-0.1c1.1,0.2,2.1,0.4,3.1,0.8
		c1.1,0.5,2.2,1,3.3,1.5c-0.3,0.6-0.5,1-0.8,1.7c0.7-0.2,1.2-0.3,1.7-0.5c0.2,1.2,0,1.5-1,1.8c-0.4,0.1-0.9,0.4-1.2,0.7
		c-0.5,0.4-0.9,0.5-1.5,0.3c-0.1,0-0.3-0.1-0.3,0c-0.3,0.4-0.6,0.6-1.2,0.6C109.4,49.2,109,49.4,108.5,49.6z M82.1,47.7
		c0,0.3,0,0.6,0,0.8c0.2,1,0,1.8-0.9,2.4c-0.3,0.2-0.3,0.6-0.1,1.1c0.6-1.1,1.6-1.7,1.6-3.2c0-1.2,0.2-2.5-0.6-3.6
		c0.2-0.2,0.4-0.3,0.5-0.4c0.5-0.4,0.8-1,0.4-1.4c-0.4-0.5-0.5-1-0.7-1.5c-0.2-0.5-0.5-1-0.9-1.2c-0.9-0.6-1.9-1-2.8-1.5
		c-0.7-0.4-1.3-0.1-1.9,0.2c-0.3,0.2-0.7,0.3-1,0.4c-0.7,0.3-1.5,0.2-1.9,0.8c-0.8,1.1-1.9,1.6-2.7,2.4c-0.2,0.5-0.2,0.9-0.4,1.2
		c-0.7,0.8-0.2,1.9-0.8,2.7c0,0,0,0.2,0.1,0.3c0.6,0.7,0.7,1.6,0.8,2.5c0,0.1,0.1,0.2,0.1,0.3c0.3,0.9,0.9,1.5,1.5,2.2
		c0.8,1,1.4,1.2,2.5,0.5c0.9-0.6,1.8-1.3,2.6-1.9c1.1-0.9,2.1-1.8,3.1-2.7C81,47.7,81.4,47.4,82.1,47.7z M64.8,50.7
		c0.1-0.1,0.2-0.1,0.2-0.2c-0.1-0.2-0.2-0.6-0.3-0.7c-0.3-0.1-0.7,0.1-1.1,0.1c0.2,0.3,0.4,0.4,0.6,0.5
		C64.3,50.6,64.6,50.6,64.8,50.7z"/>
</g>
</svg>
