<?xml version="1.0" encoding="utf-8"?>
<!-- Generator: Adobe Illustrator 19.1.0, SVG Export Plug-In . SVG Version: 6.00 Build 0)  -->
<svg version="1.1" id="Layer_1" xmlns="http://www.w3.org/2000/svg" xmlns:xlink="http://www.w3.org/1999/xlink" x="0px" y="0px"
	 viewBox="0 0 101.6 67.7" style="enable-background:new 0 0 101.6 67.7;" xml:space="preserve">
<style type="text/css">
	.st0{fill:#FFFFFF;}
</style>
<g>
	<path class="st0" d="M85.7,3.2c-0.1-0.4-0.1-0.8-0.2-1.2c0.9-0.6,1.8-0.4,2.6-0.1c0.6,0.2,1.2,0.3,1.8,0.3c0.9,0,1.7,0.4,2.5,0.8
		c0.2,0.1,0.3,0.3,0.4,0.5c0.2,0.1,0.3,0.3,0.5,0.4c0.8,0.2,1.3,0.7,1.7,1.5c0.1-0.3,0.1-0.4,0.2-0.6c0-0.1-0.1-0.3,0-0.4
		c0.5-0.7,0.5-1.5,0.4-2.4c0-0.4,0.3-0.7,0.6-0.7c0.9,0,1.8-0.1,2.4,0.8c0.3,0.5,0.4,0.9,0.4,1.4c0,2.1-0.5,4.1-0.6,6.2
		c0,0.5,0,1.1,0.5,1.4c-0.1,0.5-0.3,1-0.2,1.4c0.4,1,0,1.9,0,2.8c0,0.3,0.1,0.6,0.2,0.9c0.2,0.4,0.3,0.7-0.2,1c0,0-0.1,0-0.1,0
		c-0.1,0.8-0.4,1.5-0.4,2.4c0.4-0.1,0.6-0.1,0.9-0.2c0,0.3-0.1,0.5-0.1,0.9c-0.3-0.1-0.6-0.2-0.9-0.3c-0.1,0.5-0.2,0.8,0.4,1
		c0.1,0,0.3,0.3,0.3,0.4c-0.1,0.4-0.2,0.9-0.4,1.3c-0.2,0.3-0.3,0.7-0.3,1c0,0.3,0,0.6,0,0.9c0,0.3,0,0.6,0.2,0.8
		c0.6,0.5,0.3,1,0.3,1.6c0,0.3-0.1,0.6-0.1,0.9c0.2,2.1,0.5,4.1,0.6,6.2c0.1,1.2,0,2.5-0.1,3.7c-0.1,1.3,0,2.5,0.1,3.8
		c0.1,1.1,0.1,2.2,0.1,3.3c0,1,0.2,1.9,0.1,2.9c-0.1,1.1,0.1,2.1,0.1,3.2c0,0.8,0,1.6,0,2.4c0,0.4,0,0.7,0.4,1
		c0.6,0.5,0.6,1.6,0.2,2.5c0.4,0.2,0.7,0.3,1.1,0.5c0.4,0.2,0.6,0.5,0.4,0.9c-0.6,0.9-1.1,1.9-2,2.6c-0.6,0.5-1,1.3-1.2,2
		c-0.1,0.5-0.3,0.7-0.7,0.9c-0.2-0.6-0.7-0.4-1.1-0.4c-0.2,0-0.3,0.3-0.5,0.6c-0.4-0.4-0.9,0-1.3,0.2c-1.5,1.2-3.2,1.5-5,1.6
		c-1.4,0.1-2.8,0.3-4.3,0.5c-0.8,0.1-1.6,0.4-2.5,0.5c-0.1-0.1-0.2-0.2-0.3-0.4c-0.3-0.3-0.5-0.3-0.8,0c-0.1,0.1-0.2,0.2-0.2,0.3
		c-0.3,0.3-0.6,0.4-0.9,0.1c-0.3-0.3-0.6-0.2-1,0c-0.3,0.2-0.6,0.3-0.9,0.3c-0.6,0-1.3,0-1.9,0c-0.6,0-1.2-0.2-1.7-0.2
		c-0.4,0-0.8,0.1-1.1,0.2c-0.5,0.1-1,0.2-1.6,0.2c-0.6-0.1-1.2,0.1-1.8,0.1c-0.4,0-0.8,0-1.2,0c-0.3,0-0.5,0.1-0.8,0.1
		c-0.7-0.3-1.3-0.7-2.2-0.4c-0.5,0.2-1.1,0.2-1.6,0.2c-0.6-0.1-1.1,0.1-1.7,0.3c-1.1,0.3-2.3,0.6-3.4-0.2c-0.3-0.2-0.7-0.2-0.9,0.2
		c-0.2,0.4-0.5,0.5-0.9,0.4c-0.7-0.1-1.5-0.2-2.2,0.1c-0.1,0-0.2,0-0.3,0c-1.1-0.4-2.1,0.1-3.2,0.2c-0.3,0-0.6,0-0.8-0.1
		c-0.2-0.1-0.4-0.3-0.6-0.5c-0.3,0.8-1,0.6-1.5,0.6c-1.3,0-2.6,0.1-3.9,0.1c-0.5,0-1,0-1.5,0c-0.3,0-0.7,0-1,0
		c-0.5,0.1-1,0.2-1.3-0.2c-0.5,0.1-0.9,0.2-1.3,0.3c-0.9,0-1.9,0-2.8-0.3c-0.4-0.1-0.8-0.1-1.2-0.1c-0.5,0-1.1,0-1.6,0
		c-0.3,0-0.7-0.2-0.9,0.1c-0.1,0.1-0.2,0.1-0.3,0.1c-1.6-0.4-3.3,0-5-0.2c-0.8-0.1-1.6,0.1-2.4,0.1c-0.9,0-1.8,0.3-2.8-0.1
		c-0.4-0.2-1,0-1.5-0.1c-0.7,0-1.3-0.1-2-0.1c-0.2,0-0.4-0.1-0.6-0.1c-1.5,0.4-2.9-0.2-4.3-0.5c-1.4-0.3-2.8-0.7-4.2-0.8
		c-0.5,0-0.8-0.2-1.2-0.5c-0.6-0.4-1.4-0.6-2-0.9c-0.8-0.4-1.6-0.8-2.2-1.6c-0.3-0.5-0.7-1-1.2-1.2c-0.9-0.4-1-1.1-1-1.9
		c0-0.9,0-1.8,0-2.7c0-0.5-0.3-1.1,0.1-1.6c0-0.1-0.1-0.3-0.1-0.4c0-0.1-0.1-0.2-0.1-0.3c0-0.4,0-0.9-0.1-1.3
		c-0.1-1.3,0-2.5-0.4-3.8c-0.1-0.3-0.1-0.7-0.1-1.1c0.1-1.5-0.6-2.8-0.5-4.3c0.1-1.2-0.3-2.4-0.5-3.6C1,39.1,0.8,37.5,0.6,36
		c-0.1-0.8-0.2-1.7-0.3-2.5c0-0.3-0.1-0.6-0.1-0.9c0-0.9-0.1-1.9-0.1-2.8c0-1.2,0.1-2.3,0-3.5c0-0.5-0.2-0.9-0.2-1.4
		c-0.1-1.5,0-3,0.1-4.5c0.2-2.1,0.1-4.3,0.4-6.4c0.2-1.8,0.3-3.7,1-5.5c0.3-0.9,0.4-1.9,0.5-2.9c0.1-0.8,0.3-1.1,1-1.3
		C4,4.2,4.7,3.6,5.5,3.1c0.6-0.4,1.3-0.6,1.9-0.8c1.8-0.4,3.7-0.5,5.5-0.6C16,1.5,19.1,1.2,22.2,1c2-0.1,4-0.2,5.9-0.3
		c1.8-0.1,3.6-0.3,5.4-0.4c0.4,0,0.7,0,1.1,0C37.7,0.2,40.8,0,43.8,0c2.2,0,4.3,0.1,6.5,0.2c1.9,0.1,3.9,0.3,5.8,0.4
		c1.9,0.2,3.8,0.5,5.7,0.7c1.6,0.2,3.3,0.2,4.9,0.4c1,0.1,2,0.4,3,0.6c0.1,0,0.2,0,0.3,0C73,2.6,75.8,2.8,78.7,3c0.1,0,0.2,0,0.3,0
		c1,0.1,2.1,0,3.1,0.2c1.1,0.2,2.2,0,3.2,0.1C85.4,3.3,85.6,3.2,85.7,3.2z M94.6,23.4c-0.5-0.3-0.6-0.9-0.5-1.4
		c0.2-1.1,0.3-2.2,0.1-3.3c0-0.1,0.1-0.2,0.1-0.4c0.2-1,0-2.1,0.2-3.1c0.1-0.8,0-1.7,0.3-2.5c0.1-0.2,0.1-0.4,0.1-0.5
		c-0.1-0.9-0.2-1.8-0.4-2.7c-0.1-0.7-0.3-0.8-1-0.8c-0.8,0-1.7,0-2.5,0.1c-1.5,0.1-3.1,0-4.7,0c-1.3,0-2.5-0.1-3.8-0.2
		c-1.3-0.1-2.6-0.2-3.8-0.1C76.8,8.6,75,8.2,73.2,8c-1.9-0.3-3.9-0.6-5.8-0.8c-1.6-0.2-3.3-0.3-4.9-0.4C60,6.5,57.5,6,55,5.9
		c-1.7-0.1-3.4-0.4-5.1-0.3c-2,0.1-4.1-0.2-6.1,0c-2,0.2-4.1,0.2-6.1,0.4c-1,0.1-1.9,0.3-2.9,0.4c-1.2,0.1-2.4,0.1-3.6,0.2
		c-0.5,0-1,0.1-1.5,0.1c-1.2,0-2.5-0.1-3.6,0.1c-1.8,0.3-3.7,0.3-5.5,0.8C19,7.9,17.3,8,15.7,7.9C14.5,7.8,13.2,7.9,12,8
		c-0.7,0.1-1.2,0.6-1.2,1.4c-0.1,1-0.1,2-0.3,3c-0.5,2.7-1,5.4-1.6,8.1c-0.2,0.8-0.3,1.6-0.6,2.3c-0.4,1-0.5,2-0.6,3
		c-0.2,1.3-0.1,2.7-0.6,4c-0.1,0.2,0,0.5,0,0.7c0,0.4,0,0.7,0,1.1c0,0.5-0.3,1.1-0.2,1.6c0.3,1,0.3,1.9,0.3,2.9
		c0,0.6,0.2,1.2,0.3,1.9c0.1,1.3,0.2,2.6,0.7,3.8c0.1,0.1,0.1,0.3,0.1,0.4c0.5,2.3,0.9,4.5,1.4,6.8c0.2,0.8,0.4,1.6,0.6,2.4
		c0.2,0.7,0.5,1.3,0.6,2c0.1,0.7,0.4,1.4,0.1,2c-0.3,0.7-0.2,1.4-0.4,2c-0.2,0.5,0,0.7,0.5,0.9c0.4,0.1,0.9,0.2,1.3,0.3
		c2.6,0.3,5.3,0.6,7.9,0.9c2,0.2,3.9,0.4,5.9,0.6c2.5,0.2,5,0.3,7.5,0.3c4.5,0,9-0.1,13.5-0.1c1.4,0,2.7,0.1,4.1,0.1
		c1.9,0,3.8-0.1,5.7-0.2c0.8,0,1.5,0,2.3,0c1.9-0.1,3.8-0.2,5.7-0.2c2.5,0,4.9,0.1,7.4,0.2c3,0.1,6.1,0.3,9.1,0.4
		c2.8,0.1,5.6,0.2,8.3-0.5c0.4-0.1,0.9-0.3,1.3-0.4c0.8-0.2,1.5-0.6,2.1-1.2c0.4-0.4,0.7-0.8,0.5-1.4c0-0.1,0-0.3,0-0.4
		c0.2-0.7,0.1-1.5-0.2-2.1c-0.3-0.6-0.2-1.1-0.2-1.7c0.9-0.3,0.9-0.3,0.9-1c-0.3,0.2-0.6,0.3-0.9,0.5c-0.3-0.5-0.4-1-0.1-1.5
		c0.4-0.7,0.5-1.6,0.1-2.3c0.2-0.2,0.3-0.5,0.5-0.8c-0.5-0.6-0.3-1.2,0-1.8c0.2-0.4,0.3-0.7,0.2-1.1c-0.2-0.6-0.3-1.1-0.3-1.7
		c0.2-1.3,0.4-2.5,0.3-3.8c0-0.3,0.1-0.7,0.2-1.1c0-0.2,0.1-0.5,0.1-0.7c0-0.4,0-0.7,0-1.1c0-0.4,0.1-0.8,0-1.2
		c-0.2-0.5-0.1-1,0.1-1.5c0.1-0.3,0.1-0.5,0.1-0.8c0-0.6-0.1-1.2,0-1.7c0.2-0.7,0.1-1.4,0-2.1c-0.1-0.7-0.2-1.5-0.2-2.2
		c0-0.5,0.1-1,0-1.5C94.3,24.7,94.3,24.1,94.6,23.4z M10.3,61.6c0,0.1,0,0.1,0,0.2c0.3,0.3,0.7,0.6,1,0.8c0.1,0.1,0.5,0.2,0.6,0.1
		c0.4-0.4,0.8-0.1,1.2,0c0.4,0.1,0.4,0.1,0.9-0.1C12.6,62.3,11.5,61.8,10.3,61.6z M19.3,64.1c-0.6-0.6-3.2-1.1-3.9-0.8
		c0.6,0.2,1.2,0.4,1.8,0.6C17.9,64,18.5,64.4,19.3,64.1z M3.1,57.3c0,0.9-0.1,1.9,0.4,2.8C3.6,59.1,3.6,58.2,3.1,57.3z M94.4,50.1
		c-0.1-0.1-0.2-0.2-0.2-0.2c-0.1,0-0.1,0.1-0.2,0.2c0,0.1,0.1,0.1,0.1,0.2C94.2,50.3,94.3,50.2,94.4,50.1z M39.4,64.9
		c-0.1,0-0.2-0.1-0.3-0.1c0,0-0.1,0.1-0.1,0.1c0.1,0,0.1,0.1,0.2,0.1C39.2,65,39.3,65,39.4,64.9z M22.6,64.2c-0.1,0-0.1,0.1-0.2,0.1
		c0,0,0.1,0.1,0.1,0.1c0.1,0,0.1-0.1,0.2-0.1C22.7,64.3,22.7,64.2,22.6,64.2z"/>
	<path class="st0" d="M28.8,34.3c-0.2,0.8,0.1,1.5,0,2.5c-0.2-0.3-0.3-0.4-0.3-0.6c-0.2-1.5,0-2.9,0.3-4.3c0.4-1.8,1.4-3.4,2-5.1
		c0.1-0.4,0.5-0.8,0.8-1.2c0.9-1.2,2-2.2,3.1-3.3c1.4-1.3,3.1-2,4.6-3c0.9-0.6,2.1-1,3.3-1c1.3,0,2.6-0.2,3.9-0.6
		c1.8-0.6,3.8-1,5.7-1.2c1.6-0.2,3.2,0.1,4.7,0.1c0.4,0,0.8,0.1,1.2,0.1c0.2,0,0.4,0,0.5,0.2c0.7,0.9,1.8,0.7,2.6,1.1
		c0.5-0.2,0.9,0,1.3,0.2c0.1,0,0.2,0,0.2,0.1c0.9,1,2.2,1.3,3.2,2c0.7,0.4,1.2,1,1.8,1.5c0.5,0.4,1,0.8,1.5,1.2
		c0.4,0.3,0.8,0.7,1.3,0.2c0.3,0.4,0.8,0.8,0.9,1.2c0.1,0.8,0.7,1.2,1.2,1.7c0.4,0.4,0.7,1,1,1.6c-0.1,0.4,0,0.8,0.4,1.2
		c0.5,0.6,0.8,1.5,1.2,2.2c0.1,0.1,0,0.3,0.1,0.3c0.8,0.7,0.7,1.8,1,2.7c0.1,0.3-0.2,0.8,0,1c0.2,0.3,0.4,0.6,0.3,0.9
		c-0.4,1.5,0.3,3,0.1,4.5c0,0.3,0,0.6-0.1,0.9c0,0.5-0.1,1-0.1,1.4c0,0.2-0.1,0.4-0.2,0.6c-0.1,0.2-0.2,0.4-0.1,0.6
		c0.1,0.6-0.1,1-0.4,1.5c-0.5,0.8-1,1.6-1.6,2.3c-0.9,1.1-1.8,2.1-2.7,3.1c-0.4,0.5-1,0.9-1.4,1.4c-0.1,0.1-0.2,0.2-0.4,0.3
		c-0.9,0.4-1.7,0.9-2.6,1.3c-0.9,0.4-1.9,0.9-2.8,1.3c-0.6,0.3-1.2,0.7-1.7,0.9c-1.4,0.7-2.8,1.5-4.4,2c-0.9,0.3-1.9,0.1-2.9,0.1
		c-0.7,0-1.4-0.2-2.2-0.2c-2.1,0-4.2-0.4-6.2-1.1c-1.6-0.6-3.3-1.1-4.9-1.6c-1.3-0.4-2.3-1.2-3.4-2c-1-0.8-2-1.6-2.9-2.4
		c-0.6-0.6-1.2-1.2-1.7-1.9c-0.7-1-1.4-2.1-2.1-3.2c-0.1-0.1-0.1-0.2-0.2-0.3c-0.5-0.3-0.7-0.9-0.9-1.4c-0.3-1.3-0.9-2.5-1-3.9
		c-0.1-0.7-0.5-1.4-0.7-2.1c-0.1-0.2-0.2-0.3-0.2-0.5c-0.1-1-0.2-2.1-0.3-3.2C29,34.3,28.9,34.3,28.8,34.3z M61.1,36.3
		c0-1.3-0.6-3.5-1.3-4.1c-1.2-1.1-2.6-1.7-4.1-1.9c-0.4-0.1-0.7-0.1-1.1-0.1c-0.4,0-0.7,0-1.1,0.1c-1.6,0.3-3,1.2-4.6,1.5
		c-0.2,0-0.4,0.2-0.7,0.3c-1.2,0.4-2,1.6-3.1,2.2c-0.1,0.1-0.2,0.2-0.2,0.3c-0.3,0.7-0.2,1.5-0.7,2.1c0,1.8-0.2,3.7,0.9,5.3
		c0.3,0.5,0.6,1,1,1.5c0.8,1.1,2.1,1.7,3.2,2.4c0.7,0.4,1.6,0.6,2.5,0.4c0.8-0.2,1.7-0.3,2.5-0.3c0.6,0,1.1-0.2,1.6-0.5
		c1.6-1.2,3.1-2.5,4.1-4.3c0.6-1.2,1.2-2.4,1.1-3.8C61.2,36.9,61.1,36.6,61.1,36.3z M70.6,44.3c-1.3,0.4-2,1.1-1.1,2.3
		C69.9,45.8,70.3,45,70.6,44.3z M71.1,34c0.5-0.5,0.6-1,0.6-1.5c0-0.2-0.2-0.4-0.3-0.6c-0.2-0.2-0.5-0.1-0.5,0.2
		c0,0.3-0.1,0.7,0.1,0.9C71.3,33.2,71.2,33.5,71.1,34z M58.6,28c0-0.1,0.1-0.1,0.1-0.2c-0.1-0.2-0.1-0.5-0.3-0.5
		c-0.5-0.1-1-0.2-1.5-0.3c0,0.1,0,0.1-0.1,0.2C57.5,27.4,58.1,27.7,58.6,28z M40.1,38.2c-0.5,0.4-0.6,0.8-0.4,1.2
		c0.1,0.1,0.3,0.1,0.6,0.3C40.3,39.1,40.2,38.7,40.1,38.2z M40.4,40.2c-0.3,0.2-0.5,0.4-0.8,0.6c0.4,0.2,0.6,0.3,1.1,0.5
		C40.6,40.9,40.5,40.6,40.4,40.2z M40.7,33.8c0-0.1,0-0.2-0.1-0.2c-0.2,0.1-0.4,0.1-0.8,0.2C40.3,34.1,40.5,34.1,40.7,33.8z
		 M43.5,50.3c0.1,0.3,0.2,0.6,0.6,0.3C43.9,50.5,43.7,50.4,43.5,50.3z M64.8,38.2c-0.1,0.1-0.1,0.2-0.1,0.2c0,0,0,0.1,0.1,0.1
		c0.1,0,0.2-0.1,0.2-0.1C64.9,38.4,64.8,38.3,64.8,38.2z"/>
	<path class="st0" d="M23.2,23.7c-0.9,1.2-2.3,1.5-3.8,1.7c-1.6,0.2-2.9-0.3-4-1.3c-0.5-0.5-1.2-0.9-1.6-1.5c-0.4-0.4-0.6-1-0.9-1.5
		c-0.6-0.9-1-1.9-1.1-3c-0.2-1.3,0.3-2.5,0.9-3.6c0.6-1.1,1.5-2,2.7-2.5c0.4-0.2,0.7-0.3,1.1-0.1c0.4,0.2,0.8,0.3,1.1,0.5
		c0.6,0.3,1.2,0.7,1.9,0.4c0.2,0,0.4,0.1,0.6,0.2c0.4,0.2,0.8,0.5,1.2,0.6c1.3,0.4,2.2,1.3,2.9,2.4c0.2,0.4,0.2,0.9,0.2,1.4
		c0,0.1-0.1,0.2-0.2,0.3c-0.4,0.2-0.5,0.5-0.5,0.9c0,0.4,0,0.7,0.2,1c0.6,1.1,0.3,2.2-0.5,3.1C22.9,23,22.9,23,23.2,23.7z"/>
	<path class="st0" d="M70.1,22.8c-0.3-0.1-0.6-0.2-0.6-0.8c0.3,0.3,0.5,0.4,0.7,0.6C70.2,22.7,70.1,22.7,70.1,22.8z"/>
	<path class="st0" d="M67.8,20.8c0.2,0.2,0.3,0.2,0.3,0.3c-0.1,0-0.2,0-0.3-0.1C67.9,21,67.9,20.9,67.8,20.8z"/>
</g>
</svg>
