<?xml version="1.0" encoding="utf-8"?>
<!-- Generator: Adobe Illustrator 19.1.0, SVG Export Plug-In . SVG Version: 6.00 Build 0)  -->
<svg version="1.1" id="Layer_1" xmlns="http://www.w3.org/2000/svg" xmlns:xlink="http://www.w3.org/1999/xlink" x="0px" y="0px"
	 viewBox="0 0 111.1 56.1" style="enable-background:new 0 0 111.1 56.1;" xml:space="preserve">
<style type="text/css">
	.st0{fill:#FFFFFF;}
</style>
<g>
	<path class="st0" d="M111.1,26c-1.7,1.3-3.5,1.9-5.4,2.4c-1.1,0.3-2.3,0.6-3.5,0.8c-0.3,0.1-0.6,0.2-0.9,0.3
		C96,30,90.7,30.6,85.4,31c-5.3,0.4-10.6,0.5-15.8,0.7c-5.9,0.2-11.7,0.3-17.6,0.3c-4.2,0-8.3-0.2-12.5-0.4
		c-6.9-0.3-13.7-0.7-20.6-1c-2.6-0.1-5.3,0.1-7.9,0.2c-3,0-5.8-0.9-8.5-2.3c-0.9-0.5-2.1-0.6-2.5-2c0.4-1.9,2.3-2.3,3.9-2.5
		c5.6-0.7,11.2-1.2,16.8-1.5c3.6-0.2,7.3,0.2,10.9,0.3c5.4,0.1,10.7,0.3,16.1,0.2c8.9-0.2,17.7-0.5,26.6-0.9c5.7-0.3,11.3-1,17-1.6
		c2.6-0.3,5.1-0.7,7.7-1c2.6-0.3,5.2-0.2,7.6,0.9c0.6,0.3,1.2,0.3,1.8,0.5c1.4,0.3,1.9,1,1.9,2.4C110.2,24.7,110.2,24.7,111.1,26z"
		/>
	<path class="st0" d="M1.3,51.8c0.3-1.3,0.9-1.9,2.2-2.2c3.4-0.9,6.8-1.1,10.2-1.4c2.5-0.2,5-0.5,7.5-0.7c4.5-0.4,9.1-0.3,13.6,0
		c6.7,0.5,13.3-0.2,19.9-0.8c5.5-0.5,11-0.7,16.5-0.7c3.4,0,6.8-0.6,10.2-0.9c2.6-0.3,5.2-0.7,7.8-1c1.8-0.2,3.6-0.3,5.4-0.4
		c3-0.2,6,0.3,8.9,1.2c1.1,0.3,2.1,1.1,3.3,1.8c-0.2,0.4-0.4,0.9-0.6,1.1c-0.7,0.7-0.9,1.4-0.3,2.3c0.6,0.8,0.2,1.4-0.5,1.8
		c-0.7,0.5-1.5,0.8-2.4,0.7c-4-0.4-7.9-0.1-11.9,0.3c-6.4,0.7-12.8,1.1-19.2,1.6c-3,0.2-6,0.1-9,0.3c-3.1,0.2-6.1,0.5-9.2,0.8
		c-5.9,0.6-11.8,1-17.7,0.3c-4.7-0.6-9.3-0.1-14-0.1c-1.6,0-3.2-0.2-4.8-0.2c-1.7,0-3.4-0.2-5.1,0c-3.7,0.5-6.9-0.7-9.9-3.1
		c-0.2-0.1-0.4-0.2-0.6-0.4C1.5,52,1.4,52,1.3,51.8z"/>
	<path class="st0" d="M106.8,3.6c0,0.4,0,0.8,0,1.3c0,1.4-0.7,2.4-2.1,2.6c-4.1,0.4-8.1,0.9-12.2,1.2C88.8,8.9,85.2,9,81.5,8.8
		c-2.1-0.1-4.1-0.2-6.2-0.1C71.6,9,67.8,9,64.1,9.1c-2.5,0.1-5.1,0.4-7.6,0.5c-0.7,0-1.4,0-2.1-0.1C49,9.4,43.5,9.1,38,9.1
		c-3,0-6,0.4-9,0.7c-0.1,0-0.3,0.1-0.4,0c-3.9-0.4-7.7,0.3-11.6-0.2c-1.6-0.2-3.4,0-5,0.2c-2.6,0.3-5.1-0.3-7.3-1.4
		c-2-1-3.6-2.7-4.4-4.9c-0.5-1.4,0-2.2,1.5-2.4C2.4,1,3.1,0.8,3.9,0.6c0.5-0.1,1-0.1,1.5-0.1C7,0.7,8.7,0.8,10.4,1
		c4.7,0.5,9.4,0.2,14.1-0.5c3.7-0.6,7.3-0.6,10.9-0.2c3.9,0.4,7.8,0.9,11.7,1.3c1.5,0.1,3,0,4.5-0.1c4.8-0.3,9.5-0.7,14.3-0.9
		c3.3-0.1,6.5,0.1,9.8,0.2c5.2,0.1,10.3,0.3,15.5,0.1c3.5-0.2,6.9-0.2,10.4,0.5C103.7,1.7,105,2.3,106.8,3.6z"/>
</g>
</svg>
